<svg width="1200" height="900" viewBox="0 0 1200 900" xmlns="http://www.w3.org/2000/svg">
  <!-- Background -->
  <rect width="1200" height="900" fill="#111827"/>

  <!-- Header -->
  <rect width="1200" height="64" fill="#1F2937" fill-opacity="0.5"/>
  <rect y="63" width="1200" height="1" fill="#374151"/>
  <circle cx="40" cy="32" r="12" fill="#38BDF8"/>
  <rect x="60" y="24" width="120" height="16" rx="4" fill="#9CA3AF"/>

  <!-- Filter Bar -->
  <rect x="80" y="90" width="1040" height="48" rx="8" fill="#1F2937"/>
  <rect x="95" y="105" width="18" height="18" fill="#9CA3AF"/>
  <rect x="125" y="107" width="200" height="14" rx="3" fill="#9CA3AF"/>
  <rect x="950" y="102" width="80" height="24" rx="6" fill="#374151"/>
  <rect x="1040" y="102" width="70" height="24" rx="6" fill="#38BDF8"/>

  <!-- Masonry Grid -->
  <g transform="translate(80, 160)">
    <!-- Column 1 -->
    <g class="card" transform="translate(0, 0)">
      <rect width="330" height="280" rx="8" fill="#1F2937"/>
      <rect x="15" y="15" width="300" height="140" rx="4" fill="#374151"/>
      <rect x="15" y="170" width="200" height="18" rx="4" fill="#F9FAFB"/>
      <rect x="15" y="200" width="30" height="14" rx="3" fill="#9CA3AF"/>
      <rect x="50" y="200" width="120" height="14" rx="3" fill="#9CA3AF"/>
      <rect x="15" y="225" width="30" height="14" rx="3" fill="#9CA3AF"/>
      <rect x="50" y="225" width="150" height="14" rx="3" fill="#9CA3AF"/>
      <rect x="265" y="250" width="50" height="16" rx="4" fill="#34D399"/>
    </g>
    <g class="card" transform="translate(0, 300)">
      <rect width="330" height="320" rx="8" fill="#1F2937"/>
      <rect x="15" y="15" width="300" height="180" rx="4" fill="#374151"/>
      <rect x="15" y="210" width="250" height="18" rx="4" fill="#F9FAFB"/>
      <rect x="15" y="240" width="30" height="14" rx="3" fill="#9CA3AF"/>
      <rect x="50" y="240" width="120" height="14" rx="3" fill="#9CA3AF"/>
      <rect x="15" y="265" width="30" height="14" rx="3" fill="#9CA3AF"/>
      <rect x="50" y="265" width="150" height="14" rx="3" fill="#9CA3AF"/>
      <rect x="265" y="290" width="50" height="16" rx="4" fill="#F9FAFB"/>
    </g>

    <!-- Column 2 -->
    <g class="card" transform="translate(355, 0)">
      <rect width="330" height="340" rx="8" fill="#1F2937"/>
      <rect x="15" y="15" width="300" height="200" rx="4" fill="#374151"/>
      <rect x="15" y="230" width="220" height="18" rx="4" fill="#F9FAFB"/>
      <rect x="15" y="260" width="30" height="14" rx="3" fill="#9CA3AF"/>
      <rect x="50" y="260" width="120" height="14" rx="3" fill="#9CA3AF"/>
      <rect x="15" y="285" width="30" height="14" rx="3" fill="#9CA3AF"/>
      <rect x="50" y="285" width="150" height="14" rx="3" fill="#9CA3AF"/>
      <rect x="265" y="310" width="50" height="16" rx="4" fill="#34D399"/>
    </g>
    <g class="card" transform="translate(355, 360)">
      <rect width="330" height="260" rx="8" fill="#1F2937"/>
      <rect x="15" y="15" width="300" height="120" rx="4" fill="#374151"/>
      <rect x="15" y="150" width="200" height="18" rx="4" fill="#F9FAFB"/>
      <rect x="15" y="180" width="30" height="14" rx="3" fill="#9CA3AF"/>
      <rect x="50" y="180" width="120" height="14" rx="3" fill="#9CA3AF"/>
      <rect x="15" y="205" width="30" height="14" rx="3" fill="#9CA3AF"/>
      <rect x="50" y="205" width="150" height="14" rx="3" fill="#9CA3AF"/>
      <rect x="265" y="230" width="50" height="16" rx="4" fill="#F9FAFB"/>
    </g>

    <!-- Column 3 -->
    <g class="card" transform="translate(710, 0)">
      <rect width="330" height="300" rx="8" fill="#1F2937"/>
      <rect x="15" y="15" width="300" height="160" rx="4" fill="#374151"/>
      <rect x="15" y="190" width="240" height="18" rx="4" fill="#F9FAFB"/>
      <rect x="15" y="220" width="30" height="14" rx="3" fill="#9CA3AF"/>
      <rect x="50" y="220" width="120" height="14" rx="3" fill="#9CA3AF"/>
      <rect x="15" y="245" width="30" height="14" rx="3" fill="#9CA3AF"/>
      <rect x="50" y="245" width="150" height="14" rx="3" fill="#9CA3AF"/>
      <rect x="265" y="270" width="50" height="16" rx="4" fill="#F9FAFB"/>
    </g>
    <g class="card" transform="translate(710, 320)">
      <rect width="330" height="300" rx="8" fill="#1F2937"/>
      <rect x="15" y="15" width="300" height="160" rx="4" fill="#374151"/>
      <rect x="15" y="190" width="180" height="18" rx="4" fill="#F9FAFB"/>
      <rect x="15" y="220" width="30" height="14" rx="3" fill="#9CA3AF"/>
      <rect x="50" y="220" width="120" height="14" rx="3" fill="#9CA3AF"/>
      <rect x="15" y="245" width="30" height="14" rx="3" fill="#9CA3AF"/>
      <rect x="50" y="245" width="150" height="14" rx="3" fill="#9CA3AF"/>
      <rect x="265" y="270" width="50" height="16" rx="4" fill="#34D399"/>
    </g>
  </g>
</svg>